<svg width="20" height="20" viewBox="0 0 20 20" fill="none" xmlns="http://www.w3.org/2000/svg">
<path d="M10.2041 8.18182V12.0546H15.6958C15.4546 13.3 14.731 14.3546 13.6457 15.0637L16.9574 17.5819C18.8869 15.8365 20.0001 13.2728 20.0001 10.2274C20.0001 9.5183 19.9352 8.83642 19.8145 8.18193L10.2041 8.18182Z" fill="#4285F4"/>
<path d="M4.48526 11.9033L3.73834 12.4636L1.09448 14.4818C2.77353 17.7454 6.21487 20 10.2038 20C12.9588 20 15.2686 19.109 16.957 17.5818L13.6453 15.0636C12.7362 15.6636 11.5766 16.0273 10.2038 16.0273C7.55068 16.0273 5.29654 14.2728 4.48943 11.9091L4.48526 11.9033Z" fill="#34A853"/>
<path d="M1.09455 5.51819C0.398849 6.86359 0 8.38179 0 9.99994C0 11.6181 0.398849 13.1363 1.09455 14.4817C1.09455 14.4907 4.48982 11.8999 4.48982 11.8999C4.28574 11.2999 4.16511 10.6636 4.16511 9.99983C4.16511 9.33611 4.28574 8.69979 4.48982 8.09979L1.09455 5.51819Z" fill="#FBBC05"/>
<path d="M10.204 3.98181C11.7068 3.98181 13.0426 4.49089 14.1094 5.47272L17.0315 2.60912C15.2596 0.990969 12.9591 0 10.204 0C6.21508 0 2.77353 2.24545 1.09448 5.51818L4.48965 8.1C5.29666 5.73634 7.55089 3.98181 10.204 3.98181Z" fill="#EA4335"/>
</svg>
